<svg id="Livello_1" data-name="Livello 1" xmlns="http://www.w3.org/2000/svg" viewBox="0 0 150 129.86"><defs><style>.cls-1{fill:#5d6c81;}.cls-2{fill:#fff;}</style></defs><path class="cls-1" d="M37.63,24.47H79.47a9.19,9.19,0,0,1,9.19,9.19v98.73a9.19,9.19,0,0,1-9.19,9.19h-51a0,0,0,0,1,0,0V33.66a9.19,9.19,0,0,1,9.19-9.19Z" transform="translate(-24.47 141.57) rotate(-90)"/><polygon class="cls-1" points="36.49 129.86 15.91 129.86 19.76 102.38 32.64 102.38 36.49 129.86"/><polygon class="cls-1" points="102.29 129.86 81.7 129.86 85.56 102.38 98.44 102.38 102.29 129.86"/><path class="cls-1" d="M27.15,37.74H37.71a4.95,4.95,0,0,1,4.95,4.95v9.87a0,0,0,0,1,0,0H27.15a0,0,0,0,1,0,0V37.74A0,0,0,0,1,27.15,37.74Z" transform="translate(-10.25 80.06) rotate(-90)"/><path class="cls-1" d="M51.1,37.74H61.66a4.95,4.95,0,0,1,4.95,4.95v9.87a0,0,0,0,1,0,0H51.1a0,0,0,0,1,0,0V37.74A0,0,0,0,1,51.1,37.74Z" transform="translate(13.7 104.01) rotate(-90)"/><path class="cls-1" d="M75,37.74H85.61a4.95,4.95,0,0,1,4.95,4.95v9.87a0,0,0,0,1,0,0H75a0,0,0,0,1,0,0V37.74A0,0,0,0,1,75,37.74Z" transform="translate(37.65 127.96) rotate(-90)"/><path class="cls-1" d="M110.63,74.59h27.79a0,0,0,0,1,0,0v9.87a4.95,4.95,0,0,1-4.95,4.95H110.63a0,0,0,0,1,0,0V74.59A0,0,0,0,1,110.63,74.59Z" transform="translate(42.51 206.52) rotate(-90)"/><path class="cls-1" d="M144.48,93.33A8.53,8.53,0,0,0,136,84.79h-4V79.28h5.4A12.67,12.67,0,0,1,150,92v37.91h-5.52Z"/><path class="cls-2" d="M71,101.12a9.86,9.86,0,0,0,.14-6.79,4,4,0,0,1-3.72,2.74s2.43-1.65,1.33-6.85c-1-4.65-5.63-6.47-5.63-6.47s.5,3.76-1.77,5.62c-1.44,1.18-4.64,1.7-6.18,5.4a8.43,8.43,0,0,0,3.4,10.35s-9.37-2.92-12.15-9.69S46,81.57,46,81.57s.71,5.72,7.59,4.85c0,0-4.47-3-2.74-13s9.33-12.49,9.33-12.49-.26,7.21,4.1,10.79C67.06,74,73.22,75,76.17,82.09a16.78,16.78,0,0,1-6.07,20.47A10,10,0,0,0,71,101.12Z"/></svg>