<?xml version="1.0" encoding="utf-8"?>
<!-- Generator: Adobe Illustrator 25.3.1, SVG Export Plug-In . SVG Version: 6.00 Build 0)  -->
<svg version="1.1" id="Livello_1" xmlns="http://www.w3.org/2000/svg" xmlns:xlink="http://www.w3.org/1999/xlink" x="0px" y="0px"
	 viewBox="0 0 600 201.8" style="enable-background:new 0 0 600 201.8;" xml:space="preserve">
<style type="text/css">
	.st0{fill:#FFFFFF;}
</style>
<g>
	<g>
		<path class="st0" d="M445.8,177.8v2.9c0,13.4,6.5,21.1,23.1,21.1c15.9,0,25.2-6.9,25.2-22.3c0-8.8-2.8-14.4-13.8-19.2l-11.3-4.9
			c-6.2-2.6-7.5-5.4-7.5-9.9c0-4.3,1.7-8.4,8.3-8.4c5.6,0,7.9,4,7.9,10.8h14v-2c0-13.9-9.4-19.5-22.5-19.5
			c-13.8,0-22.5,7.2-22.5,21.3c0,12.1,6,17.5,19,22c9.7,3.4,13,5.8,13,12.4c0,6.1-4.3,8.9-8.7,8.9c-7.7,0-9.7-4.4-9.7-11.2v-2.1
			L445.8,177.8L445.8,177.8z"/>
		<path class="st0" d="M516,138.6h6.1c7.3,0,10.2,4.1,10.2,11.2c0,7.4-4,10.9-9.8,10.9H516V138.6z M501.3,200.4H516v-29h7.8
			c13.8,0,23.1-6.8,23.1-21.9c0-10.9-5.1-21.7-19.9-21.7h-25.6L501.3,200.4L501.3,200.4z"/>
	</g>
	<path class="st0" d="M571.6,140.5h0.2l7,32.6h-14.2L571.6,140.5z M543.5,200.4h15.2l3.4-15.3h19.3l3.4,15.3H600l-19.2-72.6h-18.1
		L543.5,200.4z"/>
	<g>
		<path class="st0" d="M139.3,102.2c0-18.8,15.2-34,34-34s34,15.2,34,34s-15.2,34-34,34S139.3,121,139.3,102.2"/>
	</g>
	<rect y="0.1" class="st0" width="72.3" height="199.7"/>
	<g>
		<path class="st0" d="M373.7,127.5c-2.8,0-5.1-2.3-5.1-5.1V77.6c0-2.8,2.3-5.1,5.1-5.1l0,0h59.1V0.2H331.2
			c-17.8,3.4-34.8,23.8-34.8,45.6v120c2.2,18,23.8,34.2,45.6,34.2h90.8v-72.3h-59.2h0.1V127.5z"/>
		<path class="st0" d="M269.9,77.6l-33.5,37.5l59.5,84.8h-89.6l-32.1-46.6C202,152.1,224,130.1,224,102c0-18.3-9.8-33.8-24-43.1
			L250.6,5c16.1,7.2,29.2,25,28.6,44.4C278.9,59.3,277.2,67.9,269.9,77.6"/>
		<path class="st0" d="M137.7,65.8c-9.1,9.4-14.6,22.2-14.6,36.2c0,28.8,23.1,51.5,52,51.5v46.4h-73.5V0.2h97.6l-62,66.2L137.7,65.8
			z"/>
		<path class="st0" d="M182.5,52.9c4.5,0.7,9.7,2.4,13.3,3.9l50.8-53.6c-3.9-1.4-8.6-2.6-12.9-3L182.5,52.9z"/>
		<path class="st0" d="M169.2,52c2.3-0.1,5-0.1,7,0.1L227.3,0h-6.6L169.2,52z"/>
	</g>
</g>
</svg>
