<svg id="Livello_1" data-name="Livello 1" xmlns="http://www.w3.org/2000/svg" xmlns:xlink="http://www.w3.org/1999/xlink" viewBox="0 0 600 202"><defs><style>.cls-1{fill:#0e2356;}.cls-2{fill:url(#Sfumatura_senza_nome_2);}</style><linearGradient id="Sfumatura_senza_nome_2" x1="468.88" y1="33.15" x2="593.59" y2="91.3" gradientUnits="userSpaceOnUse"><stop offset="0" stop-color="#4c350f"/><stop offset="0.14" stop-color="#ab8137"/><stop offset="0.28" stop-color="#d9af57"/><stop offset="0.42" stop-color="#e8d97f"/><stop offset="0.55" stop-color="#d1b564"/><stop offset="0.69" stop-color="#9a7737"/><stop offset="0.84" stop-color="#d2b361"/><stop offset="1" stop-color="#e5ca7c"/></linearGradient></defs><path class="cls-1" d="M444.52,178v2.94c0,13.37,6.48,21.06,23,21.06,15.81,0,25.13-6.88,25.13-22.17,0-8.82-2.84-14.38-13.78-19.15l-11.24-4.86c-6.17-2.63-7.49-5.37-7.49-9.82,0-4.25,1.72-8.41,8.3-8.41,5.57,0,7.9,4,7.9,10.74h14v-2c0-13.87-9.42-19.44-22.38-19.44-13.77,0-22.39,7.19-22.39,21.27,0,12.05,6,17.41,18.94,21.88,9.63,3.33,13,5.76,13,12.35,0,6.08-4.26,8.91-8.71,8.91-7.7,0-9.63-4.36-9.63-11.14V178Z"/><path class="cls-1" d="M514.48,139h6.08c7.29,0,10.12,4.05,10.12,11.14,0,7.39-3.94,10.84-9.71,10.84h-6.49ZM499.9,200.59h14.58V171.73h7.8c13.77,0,23-6.79,23-21.78,0-10.83-5.07-21.67-19.85-21.67H499.9Z"/><path class="cls-1" d="M570,140.83h.19l7,32.51H563Zm-28.06,59.76H557.1l3.34-15.29h19.24L583,200.59h15.2l-19.15-72.31h-18Z"/><path class="cls-1" d="M139.12,102.72A33.86,33.86,0,1,1,173,136.58a33.86,33.86,0,0,1-33.86-33.86"/><rect class="cls-1" x="0.34" y="0.97" width="72.09" height="199.04"/><path class="cls-1" d="M372.71,128a5.07,5.07,0,0,1-5.08-5.08V78.18a5.07,5.07,0,0,1,5.08-5.08h58.87V1H330.35c-17.73,3.37-34.69,23.7-34.69,45.44V166c2.19,18,23.72,34.07,45.44,34.07h90.48V128H372.71Z"/><path class="cls-1" d="M269.25,78.23l-33.43,37.35,59.26,84.47H205.83l-32-46.44c27.69-1.19,49.63-23.12,49.63-51.1,0-18.25-9.75-33.63-23.9-42.92L250,5.84c16.09,7.13,29.13,24.89,28.53,44.28-.3,9.81-2.06,18.41-9.32,28.11"/><path class="cls-1" d="M137.58,66.39A51.84,51.84,0,0,0,123,102.51c0,28.74,23,51.34,51.78,51.34v46.2H101.52V1h97.21L137,67Z"/><path class="cls-1" d="M182.24,53.61a58,58,0,0,1,13.2,3.89L246,4.06a55,55,0,0,0-12.87-3Z"/><path class="cls-1" d="M168.93,52.73a39.48,39.48,0,0,1,7,.13l50.94-52h-6.6Z"/><path class="cls-2" d="M550.69,20.2c-7.66.42-8.58-.11-8.58-5.19V8.87H540V5.5h2.16V.93h5.75V5.5h2.81V8.87h-2.81V14.2c0,1.34.2,1.82,1.83,1.82h.92ZM553.44,0h5.84V7.35a5.27,5.27,0,0,1,4.46-2.27c3.87,0,5.69,2.27,5.69,6.31V20.2H563.6V12.43c0-1.46-.39-2.75-2.05-2.75s-2.27,1.15-2.27,3V20.2h-5.84Zm6.62,29.91a39.63,39.63,0,0,0-34.2,19.67,45,45,0,0,0-29-26.3l1-3.11h35.94V1h-50L471.14,40.69h13.17a25.56,25.56,0,1,1-24.16,33.88l-7.52,23.28a44.72,44.72,0,0,0,71.63-11.42,39.6,39.6,0,1,0,35.8-56.52Zm0,59a19.38,19.38,0,1,1,19.37-19.38A19.4,19.4,0,0,1,560.06,88.89Z"/></svg>