<svg id="Livello_1" data-name="Livello 1" xmlns="http://www.w3.org/2000/svg" viewBox="0 0 150 129.86"><defs><style>.cls-1{fill:#5d6c81;}</style></defs><path class="cls-1" d="M23.27,65.32h46a9.19,9.19,0,0,1,9.19,9.19v64.7a0,0,0,0,1,0,0H23.27a0,0,0,0,1,0,0V65.32A0,0,0,0,1,23.27,65.32Z" transform="translate(-51.4 153.13) rotate(-90)"/><path class="cls-1" d="M23.11,72.67H51.73L46.52,22.31H21.43l-5.49,53A11.15,11.15,0,0,1,23.11,72.67Z"/><path class="cls-1" d="M134.31,49.37v80.49H95V58.56a9.19,9.19,0,0,1,9.19-9.19Z"/><path class="cls-1" d="M60,77.32A9.29,9.29,0,0,1,69.33,68H118V62H67.82A13.8,13.8,0,0,0,54,75.82v41.4h6Z"/><path class="cls-1" d="M6,123.48a9.29,9.29,0,0,1,9.29-9.29h4.38v-6H13.8A13.8,13.8,0,0,0,0,122v7.88H6Z"/><path class="cls-1" d="M118.81,46.46a9.29,9.29,0,0,1,9.3-9.29h.39v-6h-1.9A13.79,13.79,0,0,0,112.81,45v41.4h6Z"/><path class="cls-1" d="M144,46.46a9.29,9.29,0,0,0-9.29-9.29h-6.2v-6h7.7A13.8,13.8,0,0,1,150,45v84.9h-6Z"/><rect class="cls-1" x="112.02" y="59.72" width="6.01" height="70.14"/></svg>